<?xml version="1.0" encoding="UTF-8"?><svg id="Layer_1" xmlns="http://www.w3.org/2000/svg" viewBox="0 0 458.13 186"><defs><style>.cls-1{fill:#fff;}</style></defs><path class="cls-1" d="m0,186C0,124,0,62,0,0c152.71,0,305.42,0,458.13,0,0,62,0,124,0,186-152.71,0-305.42,0-458.13,0Zm377.38-109.57c.28-.07.39-.12.5-.12,4.5,0,8.99-.04,13.49.03.48,0,1.11.47,1.39.91,3.24,5.14,6.45,10.3,9.58,15.51.52.86.83,1.98.84,2.98.04,5.32-.02,10.64-.11,15.95-.01.87.24,1.11,1.09,1.1,3.62-.03,7.24,0,10.86,0,1.7,0,1.72,0,1.71-1.63-.01-5.36-.06-10.71-.03-16.07,0-.71.2-1.53.58-2.12,5.76-9.07,11.57-18.12,17.36-27.18.13-.2.22-.44.34-.69-.2-.06-.3-.12-.41-.12-4.15,0-8.3.02-12.46-.01-.87,0-1.36.3-1.81,1.05-3.15,5.29-6.34,10.54-9.53,15.8-.22.35-.53.65-.85,1.03-3.4-5.75-6.72-11.33-10-16.92-.42-.71-.9-.96-1.74-.96-17.6.01-35.2-.01-52.81-.02-.2,0-.41.06-.82.12.31.36.49.57.68.78.2.23.42.44.62.67,2.15,2.52,2.24,5.55,2.12,8.62-.04.85.13,1.21,1.11,1.2,4.42-.06,8.84-.03,13.26-.03.51,0,1.03.05,1.65.08v36.4c3.96,0,7.8,0,11.65,0,1.76,0,1.78,0,1.77-1.8,0-11.09-.02-22.19-.03-33.28,0-.41,0-.82,0-1.28Zm-195.43,3.8c4.27,0,8.38.01,12.49-.03.26,0,.73-.46.72-.7-.02-2.5.06-5.03-.23-7.5-.47-3.99-2.91-6.38-6.93-6.82-2.33-.26-4.71-.17-7.07-.17-7.54-.02-15.08-.04-22.63.01-5.41.04-8.3,2.65-8.83,7.96-.18,1.77-.12,3.56-.13,5.35-.01,8.05-.04,16.1,0,24.15.03,6.46,3.88,10.26,10.33,10.33,1.26.01,2.51,0,3.77,0,7.16,0,14.32.04,21.48-.02,6.14-.05,10.15-3.6,10.24-9.15.1-6.07.02-12.15.05-18.23,0-.89-.36-1.06-1.17-1.06-3.69.04-7.39.02-11.08.02-4.11,0-8.23,0-12.34-.01-.62,0-1.25-.09-1.23.87.05,2.73.08,5.47.07,8.2,0,.72.3.92.96.91,2.06-.03,4.11-.03,6.17-.03,1.77,0,3.54,0,5.3,0v7.11c-.23.02-.38.04-.52.04-6.06,0-12.11,0-18.17.04-.94,0-.93-.46-.93-1.13,0-7.52-.02-15.04-.03-22.56,0-.4.06-.79.1-1.17h19.62v3.58Zm65.04-.04c-.09-3.17.24-6.31-.54-9.41-.57-2.26-1.75-4.09-4.01-4.9-1.3-.47-2.72-.8-4.09-.85-3.35-.12-6.7-.04-10.05-.04-6.13,0-12.26-.03-18.4.01-5,.04-7.83,2.36-8.51,7.23-.36,2.58-.27,5.22-.28,7.84-.02,7.59-.11,15.19.05,22.78.13,6.32,3.88,9.89,10.2,9.93,8.46.05,16.91.04,25.37-.03,1.46-.01,2.99-.24,4.35-.74,4.1-1.48,5.79-4.73,5.87-8.87.11-5.96.09-11.92.16-17.88,0-.71-.26-.92-.94-.92-7.96.02-15.92.03-23.88.02-.81,0-1.03.3-1.02,1.07.04,2.58.05,5.17,0,7.75-.02.91.26,1.16,1.17,1.15,3.5-.04,7.01.02,10.51.01.66,0,.97.14.95.88-.05,1.67-.04,3.34,0,5.01.02.89-.21,1.24-1.2,1.23-5.87-.04-11.73,0-17.6,0-.29,0-.58-.07-.94-.11v-24.67h19.92v3.5h12.92Zm96.92,32.6c-.16-.48-.24-.8-.36-1.1-1.42-3.68-2.82-7.36-4.28-11.03-.37-.93-.32-1.44.78-1.72,2.54-.65,3.9-2.43,4.25-4.94.25-1.76.4-3.55.42-5.33.06-4.14.07-8.28,0-12.42-.03-1.82-.16-3.65-.47-5.44-.65-3.78-2.97-5.81-6.61-5.81-12.46-.02-24.91,0-37.37-.02-.99,0-1.28.28-1.27,1.29.03,15.12.02,30.23.03,45.35,0,.36.04.73.07,1.18,3.98,0,7.86,0,11.74,0,1.65,0,1.66,0,1.66-1.68,0-3.46.03-6.91-.03-10.37-.01-.91.16-1.28,1.17-1.27,3.85.04,7.69-.03,11.54,0,.3,0,.76.41.88.73,1.4,3.84,2.77,7.7,4.11,11.57.23.67.59,1,1.31,1,4.07,0,8.15,0,12.44,0ZM77.24,61.59c-.08.48-.15.73-.15.98,0,6.76-.02,13.52.05,20.28.01,1.09-.32,1.32-1.34,1.31-6.55-.04-13.11-.02-19.66-.02-.33,0-.66-.05-1.16-.09v-22.46c-.55.25-.89.4-1.23.56-3.3,1.55-6.53,3.29-9.93,4.59-2.43.93-3.17,2.22-3.14,4.84.16,13.37.06,26.74.04,40.11,0,.71.1,1.12.98,1.11,4.04-.05,8.08-.05,12.11-.01,1.01.01,1.28-.31,1.26-1.31-.09-4.33-.09-8.66-.11-12.99,0-.75.07-1.5.1-2.3h22c.02.42.06.76.05,1.09,0,4.75,0,9.5-.04,14.24,0,.9.16,1.29,1.18,1.27,4-.06,8-.07,12-.02.98.01,1.21-.31,1.21-1.23-.02-14.09-.02-28.19,0-42.28,0-.79-.31-1.13-.98-1.43-2.29-1.03-4.54-2.13-6.81-3.2-2.09-.99-4.17-1.99-6.44-3.06Zm188.98,32.28h20.6v-10.68h-20.55v-7.52c.5,0,.95,0,1.39,0,8.34,0,16.68-.01,25.03.02.99,0,1.32-.24,1.29-1.27-.07-2.66-.05-5.32.03-7.97.03-1.1-.19-1.5-1.42-1.49-12.72.05-25.44.04-38.17.04-.45,0-.89,0-1.43,0-.04.49-.1.9-.1,1.31-.01,15.12-.02,30.23-.05,45.35,0,.88.22,1.17,1.16,1.17,12.87-.03,25.75-.04,38.62,0,1.09,0,1.38-.36,1.36-1.37-.05-2.77-.06-5.55,0-8.32.02-.95-.29-1.22-1.25-1.21-6.28.04-12.57.03-18.85.03-2.25,0-4.5.01-6.74-.05-.31,0-.87-.41-.88-.65-.07-2.38-.04-4.77-.04-7.38Zm-170.67,18.7c.22.11.32.19.41.19,4.11,0,8.22.03,12.34-.04.4,0,1-.56,1.14-.98.71-2.08,1.36-4.18,1.9-6.31.28-1.1.84-1.45,1.91-1.44,5.52.04,11.04.04,16.56.03.66,0,.94.26,1.12.85.69,2.32,1.45,4.63,2.12,6.96.2.7.47.97,1.24.97,3.92-.03,7.84,0,11.77.01.24,0,.48-.1.81-.16-.13-.48-.21-.88-.34-1.27-4.82-14.97-9.65-29.93-14.43-44.9-.37-1.16-.92-1.51-2.1-1.5-5.41.06-10.81.02-16.22.02-2.76,0-2.71.02-3.57,2.67-4.67,14.42-9.37,28.82-14.05,43.23-.18.56-.39,1.11-.59,1.67Zm9.26-41.58c.14-.29.23-.42.26-.56.86-3.18,1.72-6.37,2.57-9.56.7-2.65.42-3.31-2.02-4.71-5.31-3.05-10.62-6.09-15.92-9.15-7.12-4.1-14.23-8.2-21.33-12.33-1.49-.86-2.77-1.14-4.42-.15-5.37,3.24-10.85,6.3-16.29,9.43-7.32,4.21-14.64,8.4-21.96,12.61-1.42.82-1.89,1.84-1.49,3.42.52,2.06,1.08,4.11,1.64,6.16.43,1.59.88,3.18,1.33,4.78,5.41-2.59,10.71-5.08,15.96-7.66,7.27-3.57,14.5-7.21,21.73-10.85.83-.42,1.51-.41,2.33,0,9.96,4.98,19.93,9.94,29.91,14.89,2.51,1.25,5.06,2.41,7.7,3.66Zm61.72,56.61c-.13-1.64-.14-3.2-.39-4.72-.29-1.76-1.38-2.91-3.15-2.96-5.44-.13-10.88-.07-16.32-.06-.4,0-.83.14-1.2.32-1.05.51-1.86,1.29-1.9,2.5-.07,2.08-.1,4.17.02,6.25.09,1.48.89,2.49,2.47,2.87,4.25,1,8.49,2.06,12.72,3.14.4.1.94.47,1.02.81.16.66.05,1.39.05,2.16h-9.87v-3.15c-1.19,0-2.25-.03-3.3,0-1.07.04-2.68-.22-3.07.33-.54.77-.23,2.18-.15,3.31.2,3,1.78,4.62,4.8,4.69,4.34.1,8.69.11,13.02,0,3.21-.09,4.95-1.68,5.11-4.54.09-1.62-.08-3.25-.16-4.88-.08-1.63-1.05-2.54-2.54-2.98-.44-.13-.88-.24-1.32-.35-3.69-.9-7.38-1.83-11.09-2.65-1.1-.24-1.48-.73-1.31-1.77.05-.32.05-.65.07-.95h9.92v2.63h6.57Zm-81.45-7.43h0c-1.26-.01-2.51-.01-3.77-.01-1.29,0-2.59-.03-3.88,0-2.98.09-4.36,1.34-4.38,4.07-.04,4.63-.06,9.26,0,13.89.04,3.2,1.76,4.95,4.96,5,4.53.06,9.06.06,13.59,0,3.19-.04,5.32-2.27,5.33-5.46.02-3.83.01-7.67,0-11.5,0-.72-.09-1.44-.19-2.15-.42-2.91-1.41-3.8-4.34-3.84-2.44-.03-4.87,0-7.31,0Zm283.43,0s0,.05,0,.07c-2.82,0-5.64-.15-8.44.04-2.48.17-3.53,1.43-3.55,3.88-.05,4.67-.06,9.34,0,14,.04,3.19,1.79,4.92,5,4.96,4.53.06,9.06.05,13.59,0,2.73-.03,4.57-1.49,5.09-4.16.28-1.47.21-3.02.2-4.53-.03-3.49.02-6.98-.23-10.46-.2-2.86-1.36-3.75-4.22-3.8-2.47-.04-4.95,0-7.42,0Zm-255.11,7.08c3.31,5.14,6.47,10.04,9.61,14.97.41.65.84.95,1.64.93,2.09-.05,4.19-.06,6.28,0,.92.03,1.17-.3,1.16-1.18-.04-4.74-.03-9.49-.03-14.24,0-2.28.03-4.56,0-6.83,0-.33-.3-.93-.48-.93-1.77-.07-3.54-.04-5.44-.04v16.87c-.92-1.57-1.64-2.86-2.42-4.11-2.51-4.03-5.02-8.05-7.59-12.04-.24-.38-.91-.65-1.4-.67-2.09-.08-4.19,0-6.28-.08-.86-.03-1.01.31-1,1.06.04,6.83.05,13.67.07,20.5,0,.52.06,1.05.09,1.59h5.78v-15.8Zm297.15,9.2c-.07.02-.13.04-.2.06-.57-1-1.11-2.02-1.72-3-2.69-4.32-5.38-8.63-8.12-12.91-.23-.35-.86-.61-1.31-.63-2.13-.07-4.26-.01-6.39-.07-.79-.02-.96.28-.96.99.04,6.95.05,13.89.07,20.84,0,.44.07.88.11,1.34h5.75v-15.72c.21.17.31.21.37.29,3.1,4.87,6.2,9.73,9.27,14.61.38.61.8.91,1.55.89,2.13-.05,4.26-.05,6.4,0,.85.02,1.11-.27,1.11-1.11-.02-6.98,0-13.97,0-20.95,0-.36-.06-.73-.08-1.01h-5.83v16.37Zm-185.68.16c2.06-.57,2.95-1.93,2.95-3.9,0-2.81.08-5.62-.06-8.43-.15-3.05-1.43-4.13-4.53-4.13-5.48,0-10.97,0-16.45-.05-1.01-.01-1.28.26-1.27,1.27.09,6.68.1,13.37.15,20.05,0,.55.06,1.1.09,1.62h6.44v-6.29c2.09,0,4.1-.02,6.11.03.25,0,.6.39.71.67.64,1.62,1.2,3.28,1.83,4.9.12.3.46.73.7.73,1.92.06,3.84.03,5.93.03-.9-2.27-1.73-4.33-2.59-6.51Zm71.32-8.36c0-1.33.13-2.48-.02-3.6-.46-3.42-1.65-4.45-5.12-4.49-4.23-.04-8.45-.06-12.68-.02-3.46.03-4.98,1.47-5.05,4.91-.09,4.21-.1,8.43,0,12.64.08,3.63,1.84,5.34,5.49,5.41,4.07.08,8.15.07,12.22,0,2.97-.05,4.75-1.56,5.14-4.45.21-1.59.04-3.24.04-5.06-1.89,0-3.75.03-5.6-.02-.78-.02-1,.28-.97,1,.04.93,0,1.86,0,2.87h-9.74v-11.54h9.76c0,.59-.07,1.1.03,1.57.06.29.38.73.6.73,1.93.06,3.86.03,5.9.03Zm-250.4,9.18v-11.54h9.78c0,.37.04.68,0,.97-.16,1.08.26,1.53,1.37,1.42.72-.07,1.45,0,2.17,0,3.42-.01,3.51-.12,3-3.57-.5-3.42-1.66-4.5-5.09-4.54-4.26-.05-8.53-.06-12.79-.02-3.4.04-4.91,1.45-4.99,4.85-.1,4.25-.11,8.5,0,12.75.09,3.57,1.83,5.27,5.43,5.35,4.11.09,8.22.07,12.33.01,2.54-.04,4.41-1.27,4.83-3.4.38-1.93.34-3.95.5-6.11-2.23,0-4.16-.03-6.09.04-.23,0-.62.49-.64.78-.08.96-.03,1.94-.03,3.02h-9.76Zm201.1.01c0-.52,0-.97,0-1.42,0-4.98-.02-9.95.02-14.93,0-.88-.21-1.2-1.15-1.15-1.44.08-2.9.06-4.34-.03-.93-.06-1.17.26-1.16,1.15.06,5.51.09,11.01.09,16.52,0,3.77,1.71,5.53,5.49,5.54,3.89,0,7.77,0,11.66,0,3.89,0,5.85-1.95,5.85-5.81,0-5.36,0-10.71,0-16.07v-1.31c-1.84,0-3.58.07-5.32-.03-1.11-.06-1.32.32-1.31,1.35.05,5.13.01,10.25.03,15.38,0,.58-.16.82-.77.81-2.97-.02-5.94,0-9.09,0Zm-50.35-17.01h-22.41v5.4h7.86v17.73c1.82,0,3.57-.06,5.3.02,1.1.06,1.34-.36,1.32-1.37-.09-4.9-.1-9.79-.14-14.69,0-.55,0-1.1,0-1.74h8.08v-5.36Zm122.69,5.37h8.05v-5.4h-22.37v5.46h7.82v1.38c0,5.05.02,10.1-.02,15.15,0,.89.23,1.2,1.15,1.16,1.4-.07,2.82-.04,4.22.04,1,.06,1.31-.28,1.29-1.29-.09-4.36-.1-8.73-.14-13.09,0-1.09,0-2.18,0-3.4Zm18.27-5.85v23.12h6.45c0-1.91,0-3.76,0-5.61.02-5.5.07-11,.06-16.5,0-.34-.37-.96-.58-.97-1.96-.08-3.93-.04-5.93-.04Z"/><path d="m377.38,76.43c0,.46,0,.87,0,1.28.01,11.09.02,22.19.03,33.28,0,1.8-.01,1.8-1.77,1.8-3.84,0-7.68,0-11.65,0v-36.4c-.63-.03-1.14-.08-1.65-.08-4.42,0-8.84-.03-13.26.03-.98.01-1.15-.36-1.11-1.2.13-3.07.03-6.1-2.12-8.62-.2-.23-.41-.44-.62-.67-.19-.21-.37-.42-.68-.78.41-.06.62-.12.82-.12,17.6.01,35.2.03,52.81.02.84,0,1.32.25,1.74.96,3.28,5.6,6.6,11.17,10,16.92.32-.38.64-.68.85-1.03,3.19-5.26,6.38-10.52,9.53-15.8.45-.75.94-1.06,1.81-1.05,4.15.03,8.3,0,12.46.01.1,0,.21.06.41.12-.13.25-.21.49-.34.69-5.79,9.06-11.6,18.1-17.36,27.18-.38.6-.57,1.41-.58,2.12-.03,5.36.02,10.71.03,16.07,0,1.63-.01,1.63-1.71,1.63-3.62,0-7.24-.03-10.86,0-.85,0-1.1-.23-1.09-1.1.08-5.32.15-10.64.11-15.95,0-1-.32-2.12-.84-2.98-3.13-5.21-6.35-10.36-9.58-15.51-.27-.43-.91-.9-1.39-.91-4.49-.07-8.99-.04-13.49-.03-.11,0-.22.05-.5.12Z"/><path d="m181.95,80.23v-3.58h-19.62c-.03.38-.1.77-.1,1.17,0,7.52.03,15.04.03,22.56,0,.67,0,1.14.93,1.13,6.06-.04,12.11-.03,18.17-.04.15,0,.3-.02.52-.04v-7.11c-1.76,0-3.53,0-5.3,0-2.06,0-4.11,0-6.17.03-.66,0-.96-.19-.96-.91,0-2.73-.02-5.47-.07-8.2-.02-.97.61-.87,1.23-.87,4.11,0,8.23,0,12.34.01,3.69,0,7.39.02,11.08-.02.81,0,1.17.17,1.17,1.06-.03,6.08.05,12.15-.05,18.23-.09,5.55-4.09,9.1-10.24,9.15-7.16.06-14.32.02-21.48.02-1.26,0-2.51.01-3.77,0-6.46-.07-10.3-3.87-10.33-10.33-.04-8.05,0-16.1,0-24.15,0-1.78-.05-3.58.13-5.35.54-5.3,3.42-7.92,8.83-7.96,7.54-.05,15.08-.03,22.63-.01,2.36,0,4.74-.08,7.07.17,4.02.44,6.46,2.83,6.93,6.82.29,2.48.21,5,.23,7.5,0,.24-.47.7-.72.7-4.11.04-8.22.03-12.49.03Z"/><path d="m246.99,80.19h-12.92v-3.5h-19.92v24.67c.36.04.65.11.94.11,5.87,0,11.73-.04,17.6,0,1,0,1.23-.34,1.2-1.23-.05-1.67-.05-3.34,0-5.01.02-.74-.29-.88-.95-.88-3.5,0-7.01-.05-10.51-.01-.91.01-1.18-.24-1.17-1.15.06-2.58.05-5.17,0-7.75-.01-.78.21-1.07,1.02-1.07,7.96.01,15.92,0,23.88-.02.67,0,.95.21.94.92-.06,5.96-.04,11.92-.16,17.88-.08,4.14-1.78,7.39-5.87,8.87-1.36.49-2.9.73-4.35.74-8.46.07-16.91.08-25.37.03-6.32-.04-10.07-3.61-10.2-9.93-.16-7.59-.07-15.19-.05-22.78,0-2.62-.08-5.26.28-7.84.68-4.87,3.51-7.19,8.51-7.23,6.13-.04,12.26-.01,18.4-.01,3.35,0,6.71-.08,10.05.04,1.38.05,2.79.38,4.09.85,2.26.81,3.44,2.64,4.01,4.9.78,3.1.45,6.24.54,9.41Z"/><path d="m343.91,112.79c-4.3,0-8.37,0-12.44,0-.72,0-1.08-.33-1.31-1-1.34-3.87-2.71-7.73-4.11-11.57-.12-.32-.57-.73-.88-.73-3.85-.03-7.69.03-11.54,0-1.01-.01-1.18.36-1.17,1.27.05,3.46.03,6.91.03,10.37,0,1.69-.01,1.68-1.66,1.68-3.88,0-7.76,0-11.74,0-.03-.45-.07-.81-.07-1.18,0-15.12,0-30.23-.03-45.35,0-1.01.28-1.29,1.27-1.29,12.46.03,24.91,0,37.37.02,3.63,0,5.95,2.04,6.61,5.81.31,1.79.44,3.62.47,5.44.07,4.14.06,8.28,0,12.42-.03,1.78-.18,3.57-.42,5.33-.35,2.51-1.72,4.28-4.25,4.94-1.09.28-1.15.79-.78,1.72,1.46,3.66,2.86,7.35,4.28,11.03.12.31.2.62.36,1.1Zm-12.69-24.09v-12c-6.08,0-12.05,0-18.02,0-.73,0-.73.46-.73,1,0,3.27.03,6.53-.03,9.8-.02.95.27,1.23,1.22,1.23,4.95-.04,9.9-.02,14.86-.03.87,0,1.74,0,2.7,0Z"/><path d="m77.24,61.59c2.27,1.08,4.35,2.07,6.44,3.06,2.27,1.08,4.52,2.17,6.81,3.2.67.3.98.64.98,1.43-.02,14.09-.03,28.19,0,42.28,0,.92-.23,1.24-1.21,1.23-4-.05-8-.05-12,.02-1.02.02-1.19-.37-1.18-1.27.05-4.75.04-9.5.04-14.24,0-.33-.03-.67-.05-1.09h-22c-.04.8-.11,1.55-.1,2.3.02,4.33.02,8.66.11,12.99.02,1-.26,1.32-1.26,1.31-4.04-.04-8.08-.03-12.11.01-.89,0-.98-.4-.98-1.11.02-13.37.12-26.74-.04-40.11-.03-2.63.71-3.91,3.14-4.84,3.4-1.3,6.63-3.04,9.93-4.59.34-.16.68-.31,1.23-.56v22.46c.5.04.83.09,1.16.09,6.55,0,13.11-.02,19.66.02,1.02,0,1.35-.22,1.34-1.31-.06-6.76-.05-13.52-.05-20.28,0-.25.07-.5.15-.98Z"/><path d="m266.22,93.87c0,2.61-.03,4.99.04,7.38,0,.23.57.64.88.65,2.25.06,4.49.05,6.74.05,6.29,0,12.57.02,18.85-.03.95,0,1.26.26,1.25,1.21-.05,2.77-.04,5.55,0,8.32.02,1.01-.27,1.37-1.36,1.37-12.87-.04-25.75-.03-38.62,0-.94,0-1.16-.29-1.16-1.17.03-15.12.03-30.23.05-45.35,0-.41.06-.82.1-1.31.53,0,.98,0,1.43,0,12.72,0,25.45.01,38.17-.04,1.23,0,1.46.39,1.42,1.49-.08,2.66-.1,5.32-.03,7.97.03,1.03-.31,1.28-1.29,1.27-8.34-.03-16.68-.02-25.03-.02-.45,0-.89,0-1.39,0v7.52h20.55v10.68h-20.6Z"/><path d="m95.55,112.57c.2-.56.41-1.11.59-1.67,4.69-14.41,9.38-28.82,14.05-43.23.86-2.65.81-2.67,3.57-2.67,5.41,0,10.81.04,16.22-.02,1.18-.01,1.73.34,2.1,1.5,4.78,14.98,9.61,29.94,14.43,44.9.12.39.21.79.34,1.27-.32.07-.56.16-.81.16-3.92,0-7.84-.04-11.77-.01-.77,0-1.04-.27-1.24-.97-.67-2.33-1.42-4.64-2.12-6.96-.18-.59-.45-.85-1.12-.85-5.52.01-11.04.01-16.56-.03-1.07,0-1.63.34-1.91,1.44-.53,2.13-1.19,4.23-1.9,6.31-.14.42-.74.97-1.14.98-4.11.07-8.22.05-12.34.04-.1,0-.19-.09-.41-.19Zm31.78-19.14c-.12-.46-.19-.79-.28-1.11-1.57-5.11-3.13-10.22-4.71-15.32-.19-.62-.2-1.59-1.09-1.44-.41.07-.83.88-1,1.43-1.55,4.87-3.05,9.77-4.56,14.65-.17.56-.33,1.11-.53,1.79h12.18Z"/><path d="m104.81,70.99c-2.63-1.25-5.19-2.42-7.7-3.66-9.98-4.94-19.95-9.9-29.91-14.89-.83-.41-1.5-.43-2.33,0-7.23,3.64-14.47,7.27-21.73,10.85-5.25,2.58-10.55,5.07-15.96,7.66-.45-1.61-.9-3.19-1.33-4.78-.56-2.05-1.12-4.1-1.64-6.16-.4-1.58.07-2.6,1.49-3.42,7.32-4.2,14.64-8.4,21.96-12.61,5.44-3.13,10.91-6.19,16.29-9.43,1.65-1,2.94-.72,4.42.15,7.1,4.13,14.21,8.23,21.33,12.33,5.3,3.06,10.62,6.1,15.92,9.15,2.44,1.4,2.72,2.05,2.02,4.71-.85,3.19-1.71,6.37-2.57,9.56-.04.14-.12.27-.26.56Z"/><path d="m166.53,127.61h-6.57v-2.63h-9.92c-.02.31-.02.63-.07.95-.17,1.04.21,1.53,1.31,1.77,3.71.82,7.39,1.76,11.09,2.65.44.11.89.22,1.32.35,1.49.44,2.46,1.35,2.54,2.98.08,1.63.25,3.26.16,4.88-.16,2.86-1.9,4.46-5.11,4.54-4.34.12-8.68.11-13.02,0-3.02-.07-4.6-1.69-4.8-4.69-.08-1.13-.39-2.54.15-3.31.39-.56,2-.29,3.07-.33,1.06-.04,2.12,0,3.3,0v3.15h9.87c0-.77.11-1.5-.05-2.16-.08-.34-.62-.71-1.02-.81-4.23-1.08-8.47-2.14-12.72-3.14-1.58-.37-2.39-1.39-2.47-2.87-.12-2.08-.08-4.17-.02-6.25.04-1.22.85-2,1.9-2.5.37-.18.8-.32,1.2-.32,5.44,0,10.88-.06,16.32.06,1.77.04,2.86,1.2,3.15,2.96.25,1.52.27,3.07.39,4.72Z"/><path d="m85.08,120.18c2.44,0,4.87-.03,7.31,0,2.93.04,3.93.93,4.34,3.84.1.71.19,1.43.19,2.15.02,3.83.02,7.67,0,11.5-.01,3.19-2.15,5.42-5.33,5.46-4.53.06-9.06.06-13.59,0-3.2-.05-4.93-1.79-4.96-5-.05-4.63-.04-9.26,0-13.89.03-2.74,1.41-3.99,4.38-4.07,1.29-.04,2.59,0,3.88,0,1.26,0,2.51,0,3.77,0h0Zm-5.45,17.28c3.41,0,6.76.01,10.1-.03.2,0,.58-.39.58-.6.04-3.63.03-7.26.03-10.94h-10.7v11.56Z"/><path d="m368.51,120.18c2.47,0,4.95-.03,7.42,0,2.86.05,4.02.94,4.22,3.8.25,3.47.2,6.97.23,10.46.01,1.51.09,3.06-.2,4.53-.52,2.67-2.36,4.13-5.09,4.16-4.53.05-9.06.06-13.59,0-3.21-.04-4.96-1.77-5-4.96-.06-4.67-.04-9.34,0-14,.03-2.44,1.07-3.71,3.55-3.88,2.8-.19,5.63-.04,8.44-.04,0-.02,0-.05,0-.07Zm-5.42,5.7v11.57c3.41,0,6.75.01,10.09-.03.21,0,.58-.38.59-.59.04-3.63.03-7.27.03-10.96h-10.71Z"/><path d="m113.4,127.26v15.8h-5.78c-.03-.54-.09-1.06-.09-1.59-.02-6.83-.03-13.67-.07-20.5,0-.75.14-1.09,1-1.06,2.09.07,4.19,0,6.28.08.48.02,1.15.29,1.4.67,2.57,3.99,5.08,8.01,7.59,12.04.78,1.25,1.5,2.54,2.42,4.11v-16.87c1.9,0,3.67-.03,5.44.04.18,0,.47.61.48.93.04,2.28,0,4.55,0,6.83,0,4.75-.01,9.49.03,14.24,0,.89-.24,1.21-1.16,1.18-2.09-.06-4.19-.06-6.28,0-.8.02-1.23-.28-1.64-.93-3.13-4.93-6.3-9.83-9.61-14.97Z"/><path d="m410.56,136.46v-16.37h5.83c.02.28.08.64.08,1.01,0,6.98-.02,13.97,0,20.95,0,.84-.26,1.13-1.11,1.11-2.13-.05-4.26-.05-6.4,0-.75.02-1.16-.28-1.55-.89-3.07-4.88-6.17-9.75-9.27-14.61-.05-.08-.16-.13-.37-.29v15.72h-5.75c-.04-.46-.11-.9-.11-1.34-.03-6.95-.03-13.89-.07-20.84,0-.71.17-1.01.96-.99,2.13.06,4.26,0,6.39.07.45.02,1.08.27,1.31.63,2.74,4.28,5.44,8.6,8.12,12.91.61.98,1.15,2,1.72,3,.07-.02.13-.04.2-.06Z"/><path d="m224.87,136.62c.87,2.18,1.69,4.24,2.59,6.51-2.09,0-4.01.03-5.93-.03-.25,0-.59-.43-.7-.73-.64-1.62-1.19-3.28-1.83-4.9-.11-.28-.46-.67-.71-.67-2.01-.05-4.02-.03-6.11-.03v6.29h-6.44c-.03-.52-.09-1.07-.09-1.62-.05-6.68-.06-13.37-.15-20.05-.01-1.02.26-1.28,1.27-1.27,5.48.06,10.97.04,16.45.05,3.1,0,4.39,1.08,4.53,4.13.13,2.8.05,5.62.06,8.43,0,1.97-.89,3.33-2.95,3.9Zm-3.66-5.07v-5.65h-8.99v5.65h8.99Z"/><path d="m296.19,128.26c-2.04,0-3.97.02-5.9-.03-.22,0-.54-.45-.6-.73-.1-.47-.03-.98-.03-1.57h-9.76v11.54h9.74c0-1.01.03-1.94,0-2.87-.03-.72.19-1.02.97-1,1.85.05,3.71.02,5.6.02,0,1.82.17,3.47-.04,5.06-.38,2.89-2.17,4.41-5.14,4.45-4.07.07-8.15.07-12.22,0-3.65-.07-5.41-1.78-5.49-5.41-.1-4.21-.09-8.43,0-12.64.08-3.44,1.6-4.88,5.05-4.91,4.23-.04,8.45-.02,12.68.02,3.46.04,4.65,1.07,5.12,4.49.15,1.11.02,2.26.02,3.6Z"/><path d="m45.79,137.45h9.76c0-1.08-.05-2.05.03-3.02.02-.29.41-.77.64-.78,1.93-.06,3.86-.04,6.09-.04-.16,2.17-.12,4.18-.5,6.11-.42,2.13-2.28,3.36-4.83,3.4-4.11.06-8.22.08-12.33-.01-3.6-.08-5.34-1.78-5.43-5.35-.1-4.25-.09-8.5,0-12.75.08-3.4,1.59-4.81,4.99-4.85,4.26-.04,8.53-.03,12.79.02,3.43.04,4.59,1.11,5.09,4.54.51,3.45.42,3.56-3,3.57-.72,0-1.45-.07-2.17,0-1.12.11-1.54-.34-1.37-1.42.04-.29,0-.6,0-.97h-9.78v11.54Z"/><path d="m246.9,137.46c3.16,0,6.13-.01,9.09,0,.61,0,.77-.23.77-.81-.02-5.13.02-10.25-.03-15.38-.01-1.03.2-1.41,1.31-1.35,1.73.1,3.48.03,5.32.03v1.31c0,5.36,0,10.71,0,16.07,0,3.86-1.96,5.81-5.85,5.81-3.89,0-7.77,0-11.66,0-3.78,0-5.49-1.77-5.49-5.54,0-5.51-.03-11.01-.09-16.52-.01-.9.23-1.21,1.16-1.15,1.44.09,2.9.11,4.34.03.94-.05,1.16.26,1.15,1.15-.04,4.98-.02,9.95-.02,14.93,0,.45,0,.9,0,1.42Z"/><path d="m196.55,120.44v5.36h-8.08c0,.64,0,1.19,0,1.74.04,4.9.06,9.79.14,14.69.02,1.01-.22,1.43-1.32,1.37-1.73-.09-3.48-.02-5.3-.02v-17.73h-7.86v-5.4h22.41Z"/><path d="m319.24,125.81c0,1.22,0,2.31,0,3.4.04,4.36.05,8.73.14,13.09.02,1.01-.28,1.35-1.29,1.29-1.4-.08-2.82-.11-4.22-.04-.92.04-1.16-.26-1.15-1.16.04-5.05.02-10.1.02-15.15v-1.38h-7.82v-5.46h22.37v5.4h-8.05Z"/><path d="m337.5,119.96c2,0,3.97-.03,5.93.04.21,0,.58.63.58.97,0,5.5-.03,11-.06,16.5,0,1.85,0,3.7,0,5.61h-6.45v-23.12Z"/><path class="cls-1" d="m331.22,88.7c-.96,0-1.83,0-2.7,0-4.95,0-9.9-.02-14.86.03-.95,0-1.24-.27-1.22-1.23.06-3.27.03-6.53.03-9.8,0-.54,0-1,.73-1,5.97,0,11.94,0,18.02,0v12Z"/><path class="cls-1" d="m127.33,93.43h-12.18c.2-.67.36-1.23.53-1.79,1.51-4.89,3.01-9.78,4.56-14.65.18-.55.6-1.36,1-1.43.9-.14.9.82,1.09,1.44,1.58,5.1,3.14,10.21,4.71,15.32.1.32.17.65.28,1.11Z"/><path class="cls-1" d="m79.63,137.46v-11.56h10.7c0,3.67,0,7.31-.03,10.94,0,.21-.37.59-.58.6-3.34.04-6.69.03-10.1.03Z"/><path class="cls-1" d="m363.09,125.88h10.71c0,3.69,0,7.33-.03,10.96,0,.21-.38.58-.59.59-3.34.04-6.68.03-10.09.03v-11.57Z"/><path class="cls-1" d="m221.22,131.55h-8.99v-5.65h8.99v5.65Z"/></svg>